<?xml version="1.0" encoding="utf-8"?>
<!-- Generator: Adobe Illustrator 18.0.0, SVG Export Plug-In . SVG Version: 6.00 Build 0)  -->
<!DOCTYPE svg PUBLIC "-//W3C//DTD SVG 1.1//EN" "http://www.w3.org/Graphics/SVG/1.1/DTD/svg11.dtd">
<svg version="1.1" id="Layer_1" xmlns="http://www.w3.org/2000/svg" xmlns:xlink="http://www.w3.org/1999/xlink" x="0px" y="0px"
	 viewBox="0 0 64 64" enable-background="new 0 0 64 64" xml:space="preserve">
<path d="M52,44h-4c-4.4,0-8-3.6-8-8v-2.6c1.8-2.1,3-4.6,3.8-7.2c0.1-0.4,0.5-0.7,0.8-1c1.5-1.5,1.8-4.1,0.7-6
	c-0.2-0.3-0.4-0.5-0.4-0.9c0-2.3,0-4.7,0-7C44.8,8.6,44,5.6,42,3.5c-1.6-1.7-3.8-2.7-6.1-3.1c-2.9-0.5-5.9-0.5-8.7,0.2
	c-2.5,0.6-4.8,2.1-6.2,4.2c-1.3,1.9-1.8,4.1-1.9,6.3c0,2.4,0,4.8,0,7.2c0.1,0.5-0.4,0.8-0.5,1.2c-1.1,2-0.6,4.6,1.1,6.1
	c0.4,0.3,0.5,0.9,0.7,1.3c0.8,2.4,2,4.5,3.6,6.5V36c0,4.4-3.6,8-8,8h-4c0,0-7.2,2-12,12v4c0,2.2,1.8,4,4,4h56c2.2,0,4-1.8,4-4v-4
	C59.2,46,52,44,52,44z"/>
</svg>
