<?xml version="1.0" encoding="utf-8"?>
<!-- Generator: Adobe Illustrator 18.0.0, SVG Export Plug-In . SVG Version: 6.00 Build 0)  -->
<!DOCTYPE svg PUBLIC "-//W3C//DTD SVG 1.1//EN" "http://www.w3.org/Graphics/SVG/1.1/DTD/svg11.dtd">
<svg version="1.1" id="Layer_1" xmlns="http://www.w3.org/2000/svg" xmlns:xlink="http://www.w3.org/1999/xlink" x="0px" y="0px"
	 viewBox="0 0 64 64" enable-background="new 0 0 64 64" xml:space="preserve">
<path d="M0,64h32V0H0V64z M20,8h8v8h-8V8z M20,24h8v8h-8V24z M20,40h8v8h-8V40z M4,8h8v8H4V8z M4,24h8v8H4V24z M4,40h8v8H4V40z
	 M36,20h28v4H36V20z M36,64h8V48h12v16h8V28H36V64z"/>
</svg>
