<?xml version="1.0" encoding="utf-8"?>
<!-- Generator: Adobe Illustrator 18.0.0, SVG Export Plug-In . SVG Version: 6.00 Build 0)  -->
<!DOCTYPE svg PUBLIC "-//W3C//DTD SVG 1.1//EN" "http://www.w3.org/Graphics/SVG/1.1/DTD/svg11.dtd">
<svg version="1.1" id="Layer_1" xmlns="http://www.w3.org/2000/svg" xmlns:xlink="http://www.w3.org/1999/xlink" x="0px" y="0px"
	 viewBox="0 0 64 64" enable-background="new 0 0 64 64" xml:space="preserve">
<path d="M32,0C14.3,0-0.1,14.4-0.1,32.1c0,17.7,14.4,32.1,32.1,32.1c17.7,0,32.1-14.4,32.1-32.1C64.1,14.4,49.7,0,32,0z M50.1,42.8
	c0.6-2.7,0.9-5.6,1.1-8.6h8.5c-0.2,3-0.9,5.8-2,8.6H50.1z M13.9,21.4c-0.6,2.7-0.9,5.6-1.1,8.6H4.3c0.2-3,0.9-5.8,2-8.6H13.9z
	 M45.8,21.4c0.6,2.7,1,5.6,1.2,8.6H34.1v-8.6H45.8z M34.1,17.1V4.6c1,0.3,1.9,0.8,2.9,1.4c1.8,1.3,3.5,3.2,4.9,5.6
	c1,1.7,1.9,3.5,2.6,5.5L34.1,17.1L34.1,17.1z M22.1,11.6C23.5,9.2,25.2,7.3,27,6c0.9-0.7,1.9-1.1,2.9-1.4v12.5H19.5
	C20.2,15.1,21.1,13.2,22.1,11.6z M29.9,21.4v8.6H17.1c0.1-2.9,0.5-5.8,1.2-8.6H29.9z M6.3,42.8c-1.1-2.7-1.8-5.6-2-8.6h8.5
	c0.1,3,0.5,5.8,1.1,8.6H6.3z M17.1,34.2h12.8v8.6H18.2C17.6,40,17.2,37.2,17.1,34.2z M29.9,47v12.5c-1-0.3-1.9-0.8-2.9-1.4
	c-1.8-1.3-3.5-3.2-4.9-5.6c-1-1.7-1.9-3.5-2.6-5.5L29.9,47L29.9,47z M41.9,52.5c-1.4,2.4-3.1,4.3-4.9,5.6c-0.9,0.7-1.9,1.1-2.9,1.4
	V47h10.4C43.8,49,42.9,50.9,41.9,52.5z M34.1,42.8v-8.6h12.8c-0.1,2.9-0.5,5.8-1.2,8.6H34.1z M51.2,29.9c-0.1-3-0.5-5.8-1.1-8.6h7.5
	c1.1,2.7,1.8,5.6,2,8.6H51.2z M55.4,17.1H49c-1.2-3.9-3-7.4-5-10.1c2.8,1.4,5.4,3.2,7.7,5.4C53.1,13.8,54.3,15.4,55.4,17.1z
	 M12.3,12.4c2.2-2.2,4.8-4.1,7.7-5.4c-2.1,2.7-3.8,6.2-5,10.1H8.6C9.7,15.4,10.9,13.8,12.3,12.4z M8.6,47H15c1.2,3.9,3,7.4,5,10.1
	c-2.8-1.4-5.4-3.2-7.7-5.4C10.9,50.3,9.7,48.7,8.6,47z M51.7,51.7c-2.2,2.2-4.8,4.1-7.7,5.4c2.1-2.7,3.8-6.2,5-10.1h6.4
	C54.3,48.7,53.1,50.3,51.7,51.7z"/>
</svg>
