<?xml version="1.0" encoding="utf-8"?>
<!-- Generator: Adobe Illustrator 18.0.0, SVG Export Plug-In . SVG Version: 6.00 Build 0)  -->
<!DOCTYPE svg PUBLIC "-//W3C//DTD SVG 1.1//EN" "http://www.w3.org/Graphics/SVG/1.1/DTD/svg11.dtd">
<svg version="1.1" id="Layer_1" xmlns="http://www.w3.org/2000/svg" xmlns:xlink="http://www.w3.org/1999/xlink" x="0px" y="0px"
	 viewBox="0 0 64 64" enable-background="new 0 0 64 64" xml:space="preserve">
<path d="M64,50.5c0.1,1-0.2,1.9-0.9,2.7l-9,8.9c-0.4,0.5-0.9,0.8-1.6,1.2c-0.7,0.3-1.3,0.5-1.9,0.6c0,0-0.2,0-0.4,0
	c-0.2,0-0.5,0-0.9,0c-0.9,0-2.2-0.1-4.2-0.4c-1.9-0.3-4.3-1-7-2.2c-2.8-1.2-5.9-2.9-9.5-5.2s-7.3-5.5-11.2-9.5
	c-3.2-3.1-5.8-6.1-7.9-8.9s-3.7-5.5-5-7.9c-1.3-2.4-2.2-4.6-2.8-6.6s-1.1-3.7-1.3-5.1C0.1,16.8,0,15.7,0,14.8c0-0.8,0.1-1.3,0.1-1.4
	c0.1-0.6,0.3-1.3,0.6-1.9C1,10.9,1.4,10.4,1.8,10l9-9C11.5,0.3,12.2,0,13,0c0.6,0,1.1,0.2,1.6,0.5c0.5,0.3,0.8,0.8,1.2,1.3L23,15.5
	c0.4,0.7,0.5,1.5,0.3,2.4c-0.2,0.9-0.6,1.6-1.2,2.2l-3.3,3.3c-0.1,0.1-0.2,0.2-0.2,0.4s-0.1,0.4-0.1,0.5c0.2,0.9,0.6,2,1.2,3.3
	c0.5,1.1,1.4,2.4,2.5,4c1.1,1.6,2.7,3.4,4.8,5.4c2,2.1,3.8,3.7,5.4,4.8c1.6,1.2,2.9,2,4,2.5c1.1,0.5,1.9,0.9,2.4,1l0.8,0.2
	c0.1,0,0.2,0,0.4-0.1c0.2-0.1,0.4-0.1,0.4-0.2l3.9-3.9c0.8-0.7,1.8-1.1,2.8-1.1c0.8,0,1.4,0.1,1.8,0.4h0.1l13.1,7.7
	C63.2,48.9,63.8,49.6,64,50.5z"/>
</svg>
