<?xml version="1.0" encoding="utf-8"?>
<!-- Generator: Adobe Illustrator 18.0.0, SVG Export Plug-In . SVG Version: 6.00 Build 0)  -->
<!DOCTYPE svg PUBLIC "-//W3C//DTD SVG 1.1//EN" "http://www.w3.org/Graphics/SVG/1.1/DTD/svg11.dtd">
<svg version="1.1" id="Layer_1" xmlns="http://www.w3.org/2000/svg" xmlns:xlink="http://www.w3.org/1999/xlink" x="0px" y="0px"
	 viewBox="0 0 190 52" enable-background="new 0 0 190 52" xml:space="preserve">
<g>
	<path fill="#FFFFFF" d="M55.7,50.6c-0.8,0.9-2.3,1.3-3.9,1.3c-2.3,0-4.6-1.8-4.6-4.4c0-2.5,2-4.6,4.5-4.6c1.8,0,3.2,0.9,3.7,1.3
		c0.1,0.1,0.1,0.3,0.1,0.4c0,0.3-0.3,0.6-0.6,0.6c-0.2,0-0.3-0.1-0.5-0.2c-0.4-0.3-1.4-0.9-2.7-0.9c-1.6,0-3.3,1.2-3.3,3.3
		c0,1.5,1.2,3.2,3.6,3.2c1.2,0,2.4-0.5,2.7-1c0.1-0.1,0.3-0.2,0.4-0.2c0.6,0,0.6,0.6,0.6,0.6C55.9,50.4,55.8,50.5,55.7,50.6z"/>
	<path fill="#FFFFFF" d="M62.6,52c-2.5,0-4.6-1.8-4.6-4.5c0-2.7,2.2-4.5,4.6-4.5s4.6,1.8,4.6,4.5C67.2,50.2,65.1,52,62.6,52z
		 M62.6,44.2c-2,0-3.4,1.5-3.4,3.3c0,1.8,1.4,3.3,3.4,3.3c2,0,3.4-1.5,3.4-3.3C66,45.7,64.6,44.2,62.6,44.2z"/>
	<path fill="#FFFFFF" d="M77.2,51.9h-0.2c-0.2,0-0.4-0.1-0.5-0.2l-5.1-6.4h0v6.1c0,0.3-0.3,0.6-0.6,0.6h-0.1c-0.3,0-0.6-0.3-0.6-0.6
		v-7.6c0-0.3,0.3-0.6,0.6-0.6h0.3c0.2,0,0.4,0.1,0.5,0.2l5,6.3h0v-6c0-0.3,0.3-0.6,0.6-0.6h0.1c0.3,0,0.6,0.3,0.6,0.6v7.6
		C77.8,51.6,77.5,51.9,77.2,51.9z"/>
	<path fill="#FFFFFF" d="M84.5,52c-2,0-3.3-0.9-3.8-1.4c-0.1-0.1-0.2-0.3-0.2-0.4c0-0.6,0.6-0.6,0.6-0.6c0.2,0,0.3,0.1,0.4,0.2
		c0.6,0.4,1.4,1,3,1c1.2,0,2.8-0.4,2.8-1.5c0-1.4-1.6-1.4-2.7-1.4h-1.3c-1.2,0-2.6-0.6-2.6-2.2c0-1.8,2.1-2.7,3.7-2.7
		c1.8,0,2.7,0.7,3.1,0.9c0.2,0.1,0.3,0.3,0.3,0.5c0,0.3-0.3,0.6-0.6,0.6c-0.1,0-0.2,0-0.4-0.1c-0.8-0.5-1.1-0.7-2.3-0.7
		c-1.1,0-2.5,0.4-2.5,1.4c0,0.7,0.5,1,1.5,1h1.1c2,0,3.9,0.5,3.9,2.7C88.6,51.1,86.7,52,84.5,52z"/>
	<path fill="#FFFFFF" d="M94.9,52c-3.2,0-3.8-1.8-3.8-3.5v-4.8c0-0.3,0.3-0.6,0.6-0.6h0.1c0.3,0,0.6,0.3,0.6,0.6v4.8
		c0,1.3,0.5,2.2,2.6,2.2c2,0,2.6-0.9,2.6-2.2v-4.8c0-0.3,0.3-0.6,0.6-0.6h0.1c0.3,0,0.6,0.3,0.6,0.6v4.8C98.7,50.2,98.1,52,94.9,52z
		"/>
	<path fill="#FFFFFF" d="M107.6,51.8h-5.2c-0.3,0-0.6-0.3-0.6-0.6v-7.5c0-0.3,0.3-0.6,0.6-0.6h0.1c0.3,0,0.6,0.2,0.6,0.6v6.8h4.6
		c0.3,0,0.6,0.3,0.6,0.6C108.2,51.5,107.9,51.8,107.6,51.8z"/>
	<path fill="#FFFFFF" d="M114.7,44.4h-2.4v7c0,0.3-0.3,0.6-0.6,0.6h-0.1c-0.3,0-0.6-0.2-0.6-0.6v-7h-2.4c-0.3,0-0.6-0.3-0.6-0.6
		c0-0.3,0.3-0.6,0.6-0.6h6c0.3,0,0.6,0.3,0.6,0.6C115.3,44.1,115,44.4,114.7,44.4z"/>
	<path fill="#FFFFFF" d="M118.6,51.9h-0.1c-0.3,0-0.6-0.3-0.6-0.6v-7.6c0-0.3,0.3-0.6,0.6-0.6h0.1c0.3,0,0.6,0.3,0.6,0.6v7.6
		C119.2,51.6,118.9,51.9,118.6,51.9z"/>
	<path fill="#FFFFFF" d="M129.6,51.9h-0.2c-0.2,0-0.4-0.1-0.5-0.2l-5.1-6.4h0v6.1c0,0.3-0.3,0.6-0.6,0.6h-0.1
		c-0.3,0-0.6-0.3-0.6-0.6v-7.6c0-0.3,0.3-0.6,0.6-0.6h0.3c0.2,0,0.4,0.1,0.5,0.2l5,6.3h0v-6c0-0.3,0.3-0.6,0.6-0.6h0.1
		c0.3,0,0.6,0.3,0.6,0.6v7.6C130.3,51.6,130,51.9,129.6,51.9z"/>
	<path fill="#FFFFFF" d="M137.9,52c-2.3,0-4.7-1.6-4.7-4.5c0-2.5,2-4.5,4.7-4.5c2,0,3.4,1.1,3.4,1.6c0,0.3-0.3,0.6-0.6,0.6
		c-0.2,0-0.3-0.1-0.4-0.2c-0.4-0.4-1.1-0.8-2.2-0.8c-2.3,0-3.6,1.5-3.6,3.3c0,1.7,1.3,3.2,3.5,3.2c1.5,0,2.6-0.7,2.6-1.4v-1h-2.1
		c-0.3,0-0.6-0.3-0.6-0.6c0-0.3,0.3-0.6,0.6-0.6h2.7c0.3,0,0.6,0.3,0.6,0.6v1.7C141.8,50.9,140,52,137.9,52z"/>
</g>
<path fill="#FFFFFF" d="M14.8,34.5C2.4,34.5,0,27.4,0,20.9V10.3c0-1.6,1.5-3.1,3.1-3.1h0.4c1.6,0,3.1,1.5,3.1,3.1v10.7
	c0,4.1,1.7,7,8.3,7c6.5,0,8.3-3,8.3-7V3.1c0-1.6,1.5-3.1,3.1-3.1h0.4c1.6,0,3.1,1.5,3.1,3.1v17.9C29.7,27.4,27.2,34.5,14.8,34.5z"/>
<path fill="#FFFFFF" d="M46.8,34.4c-2.3,0-4.4-0.6-6.2-1.7v8c0,1.7-1.4,3.1-3.1,3.1h-0.3c-1.7,0-3-1.3-3-3.1V12.6
	c0-1.7,1.3-3.1,3-3.1h0.3c1.8,0,2.5,1.1,2.9,2.1c1.4-1.2,3.9-2.3,6.3-2.3c9.2,0,13.5,6,13.5,12.5C60.2,28.5,56,34.4,46.8,34.4z
	 M46.8,15.4c-2.8,0-5.1,1.4-6.2,3.3c-0.3,0.4-0.6,1.7-0.6,3.1c0,1.1,0.2,2.2,0.6,2.9c1.2,2,3.3,3.4,6.2,3.4c4.8,0,7-2.9,7-6.4
	C53.7,18.5,51.5,15.4,46.8,15.4z"/>
<path fill="#FFFFFF" d="M87.8,20.6l4.5,8.8c0.3,0.5,0.3,1,0.3,1.5c0,1.7-1.6,3.2-3.3,3.2c-1.3,0-2.5-0.7-3-1.9
	c-1.9-4-3.6-7.1-5.6-11.2h-9.8v10c0,1.6-1.3,3.1-3.1,3.1h-0.4c-1.6,0-3.1-1.4-3.1-3.1V3.3C64.4,1.6,66,0,67.7,0h16
	c5.5,0,10.9,3.4,10.9,10.6C94.6,17,90.8,19.9,87.8,20.6z M83.7,6.6H70.9v8h12.8c2.7,0,4.3-1.6,4.3-4C88,7.7,85.8,6.6,83.7,6.6z"/>
<path fill="#FFFFFF" d="M118.8,34.1h-0.2c-1.5,0-2.8-1-3-2.5c-2.3,1.3-5.7,2.7-9.3,2.7c-5.2,0-8.9-3.5-8.9-8.4c0-5,3.7-7.5,8.9-7.5
	h9.3c0-1.9-2.8-3.2-5.5-3.2c-2.3,0-4.3,0.8-5.6,1.4c-0.9,0.4-1.6,0.7-2.2,0.7c-1.7,0-3.3-1-3.3-2.8c0-3.8,8-5.3,11.1-5.3
	c7,0,11.8,2.8,11.8,11.4v10.3C121.9,32.7,120.5,34.1,118.8,34.1z M115.5,23.8h-9.3c-1.2,0-2.5,0.8-2.5,2.1c0,1.3,1.1,2.3,2.5,2.3
	c4,0,6.5-1.1,9.3-2.7c0.2-0.3,0.2-0.6,0.2-0.8C115.7,24.1,115.5,23.8,115.5,23.8z"/>
<path fill="#FFFFFF" d="M130.1,8.1c-2.1,0-3.7-1.8-3.7-3.8c0-2,1.6-3.7,3.7-3.7c2.1,0,3.7,1.6,3.7,3.7
	C133.9,6.4,132.1,8.1,130.1,8.1z M130.3,34.1H130c-1.7,0-3.1-1.3-3.1-3.1v-18c0-1.7,1.4-3.1,3.1-3.1h0.3c1.7,0,3.1,1.4,3.1,3.1v18
	C133.4,32.7,132,34.1,130.3,34.1z"/>
<path fill="#FFFFFF" d="M151.5,34.4c-6.5,0-13.7-2-13.7-5.6c0-3.2,3.2-3.2,3.2-3.2c0.5,0,1,0.3,1.5,0.5c3.5,1.9,7.2,2.3,9,2.3
	c1.8,0,4.9-0.6,4.9-2.3c0-1-1.3-1.4-2.3-1.5c-2.2,0-4.4-0.1-6.5-0.2c-6-0.2-8.9-3.5-8.9-7.4c0-3.7,2.6-7.7,11.2-7.7
	c5.1,0,10.8,2.1,10.8,5.1c0,1.9-1.6,2.9-3.2,2.9c-0.6,0-1-0.3-1.4-0.5c-1.6-0.8-3.6-1.7-6.8-1.7c-1.9,0-4.2,0.9-4.2,2.1
	c0,1,1.8,1.7,2.9,1.7c1.9,0.1,3.8,0.2,5.7,0.2c5.6,0.2,9.1,1.9,9.1,7.2C162.7,30.7,159.4,34.4,151.5,34.4z"/>
<path fill="#FFFFFF" d="M178,34.4c-7.4,0-13.4-4.4-13.4-12.5c0-8.2,6-12.6,13.4-12.6c7.2,0,12,4,12,10.7c0,3-2.4,4.4-5.4,4.4h-12.9
	c0.3,2.1,3.2,4.2,6.4,4.2c2.6,0,5.5-1.1,7.1-2c0.4-0.2,1.1-0.5,1.6-0.5c1.8,0,3.2,1.3,3.2,3.1C190,33.2,181,34.4,178,34.4z
	 M178.1,15c-2.9,0-5.8,1.8-6.5,4.1h12.2C183.8,16.4,181,15,178.1,15z"/>
<path fill="#6CAB36" d="M15,24.1h-0.3c-1.7,0-3.1-1.3-3.1-3.1V6.7c0-1.7,1.4-3.1,3.1-3.1H15c1.7,0,3.1,1.4,3.1,3.1v14.4
	C18.1,22.7,16.7,24.1,15,24.1z"/>
</svg>
